<?xml version="1.0" encoding="UTF-8" standalone="no"?>
<!DOCTYPE svg PUBLIC "-//W3C//DTD SVG 1.1//EN" "http://www.w3.org/Graphics/SVG/1.1/DTD/svg11.dtd">
<svg width="100%" height="100%" viewBox="0 0 243 145" version="1.1" xmlns="http://www.w3.org/2000/svg" xmlns:xlink="http://www.w3.org/1999/xlink" xml:space="preserve" xmlns:serif="http://www.serif.com/" style="fill-rule:evenodd;clip-rule:evenodd;stroke-linecap:round;stroke-linejoin:round;stroke-miterlimit:1.5;">
    <g transform="matrix(1,0,0,1,-252.398519,-250.372871)">
        <g id="Birds">
            <g id="Bird-1" serif:id="Bird 1" transform="matrix(0.6331,0,0,0.6331,-139.784343,40.347386)">
                <path d="M707.452,454.572C707.452,454.572 693.228,396.53 678.695,394.198C664.162,391.866 620.254,440.58 620.254,440.58C620.254,440.58 623.729,370.098 637.489,360.358C651.249,350.618 702.813,382.139 702.813,382.139C702.813,382.139 688.239,338.07 702.461,333.753C722.328,327.724 822.015,345.961 822.015,345.961C822.015,345.961 732.266,364.551 730.643,373.79C729.019,383.029 812.275,401.394 812.275,401.394L707.452,454.572Z" style="stroke:black;stroke-width:1.58px;"/>
            </g>
            <g id="Bird-2" serif:id="Bird 2" transform="matrix(0.363805,0,0,0.363805,74.759225,228.978937)">
                <path d="M707.452,454.572C707.452,454.572 693.228,396.53 678.695,394.198C664.162,391.866 620.254,440.58 620.254,440.58C620.254,440.58 623.729,370.098 637.489,360.358C651.249,350.618 702.813,382.139 702.813,382.139C702.813,382.139 688.239,338.07 702.461,333.753C722.328,327.724 822.015,345.961 822.015,345.961C822.015,345.961 732.266,364.551 730.643,373.79C729.019,383.029 812.275,401.394 812.275,401.394L707.452,454.572Z" style="stroke:black;stroke-width:2.75px;"/>
            </g>
            <g id="Bird-3" serif:id="Bird 3" transform="matrix(0.495325,0,0,0.495325,87.560903,124.794072)">
                <path d="M707.452,454.572C707.452,454.572 693.228,396.53 678.695,394.198C664.162,391.866 620.254,440.58 620.254,440.58C620.254,440.58 623.729,370.098 637.489,360.358C651.249,350.618 702.813,382.139 702.813,382.139C702.813,382.139 688.239,338.07 702.461,333.753C722.328,327.724 822.015,345.961 822.015,345.961C822.015,345.961 732.266,364.551 730.643,373.79C729.019,383.029 812.275,401.394 812.275,401.394L707.452,454.572Z" style="stroke:black;stroke-width:2.02px;"/>
            </g>
        </g>
    </g>
</svg>
