<?xml version="1.0" encoding="UTF-8" standalone="no"?>
<!DOCTYPE svg PUBLIC "-//W3C//DTD SVG 1.1//EN" "http://www.w3.org/Graphics/SVG/1.1/DTD/svg11.dtd">
<svg width="100%" height="100%" viewBox="0 0 767 135" version="1.1" xmlns="http://www.w3.org/2000/svg" xmlns:xlink="http://www.w3.org/1999/xlink" xml:space="preserve" xmlns:serif="http://www.serif.com/" style="fill-rule:evenodd;clip-rule:evenodd;stroke-linejoin:round;stroke-miterlimit:2;">
    <g transform="matrix(1,0,0,1,-101.502182,-43.562139)">
        <g id="Cloud-2" serif:id="Cloud 2" transform="matrix(-1,0,0,-1,1990.281583,356.506333)">
            <path d="M1361.482,182.249C1370.526,176.606 1473.444,178.036 1529.384,179.93C1606.997,182.559 1799.018,193.304 1827.156,198.019C1855.294,202.735 1706.64,202.735 1698.214,208.223C1689.788,213.712 1798.631,221.906 1776.6,230.95C1754.568,239.995 1547.349,251.204 1566.026,262.49C1584.703,273.776 1895.696,291.092 1888.662,298.668C1881.627,306.244 1640.052,306.244 1523.818,307.944C1412.977,309.566 1214.374,317.762 1191.26,308.872C1168.147,299.982 1396.57,265.969 1385.137,254.605C1373.704,243.242 1107.665,247.493 1122.662,240.691C1137.659,233.888 1435.314,223.529 1475.117,213.789C1513.301,204.445 1352.437,187.892 1361.482,182.249Z" style="fill:rgb(255,236,144);"/>
        </g>
    </g>
</svg>
