<?xml version="1.0" encoding="UTF-8" standalone="no"?>
<!DOCTYPE svg PUBLIC "-//W3C//DTD SVG 1.1//EN" "http://www.w3.org/Graphics/SVG/1.1/DTD/svg11.dtd">
<svg width="100%" height="100%" viewBox="0 0 1626 679" version="1.1" xmlns="http://www.w3.org/2000/svg" xmlns:xlink="http://www.w3.org/1999/xlink" xml:space="preserve" xmlns:serif="http://www.serif.com/" style="fill-rule:evenodd;clip-rule:evenodd;stroke-linejoin:round;stroke-miterlimit:2;">
    <g transform="matrix(1,0,0,1,-294.740982,-401.393923)">
        <path id="Hill-Back" serif:id="Hill Back" d="M294.741,1080C294.741,1080 475.166,949.954 538.201,905.374C579.387,876.246 665.724,855.108 709.189,829.505C764.298,797.044 808.838,745.858 863.192,714.003C905.052,689.47 962.844,662.427 1003.606,636.11C1057.394,601.384 1108.539,597.031 1159.873,569.059C1191.507,551.822 1269.902,509.044 1299.155,488.661C1328.104,468.49 1433.185,395.368 1467.879,401.792C1503.548,408.398 1561.249,464.063 1604.896,495.455C1653.965,530.748 1714.834,558.996 1774.751,589.442C1841.235,623.225 1920,695.885 1920,695.885L1920,1080L294.741,1080Z" style="fill:rgb(227,197,243);"/>
    </g>
</svg>
