<?xml version="1.0" encoding="UTF-8" standalone="no"?>
<!DOCTYPE svg PUBLIC "-//W3C//DTD SVG 1.1//EN" "http://www.w3.org/Graphics/SVG/1.1/DTD/svg11.dtd">
<svg width="100%" height="100%" viewBox="0 0 1567 607" version="1.1" xmlns="http://www.w3.org/2000/svg" xmlns:xlink="http://www.w3.org/1999/xlink" xml:space="preserve" xmlns:serif="http://www.serif.com/" style="fill-rule:evenodd;clip-rule:evenodd;stroke-linejoin:round;stroke-miterlimit:2;">
    <g transform="matrix(1,0,0,1,-353,-473.26674)">
        <path id="Hill-Front" serif:id="Hill Front" d="M353,1080C353,1080 505.25,986.589 582.364,941.61C674.001,888.16 815.632,823.438 896.031,776.633C950.624,744.851 1029.565,717.001 1084.004,684.956C1146.096,648.406 1215.548,572.451 1266.316,540C1299.621,518.711 1344.639,479.537 1373.892,474C1401.301,468.812 1427.016,492.355 1450.893,506.779C1476.183,522.056 1500.131,546.803 1525.63,565.662C1557.525,589.253 1618.295,615.487 1659.25,638.134C1699.98,660.658 1726.356,695.046 1770.222,710.606C1816.511,727.025 1920,746.842 1920,746.842L1920,1080L353,1080Z" style="fill:rgb(201,143,230);"/>
    </g>
</svg>
