<?xml version="1.0" encoding="UTF-8" standalone="no"?>
<!DOCTYPE svg PUBLIC "-//W3C//DTD SVG 1.1//EN" "http://www.w3.org/Graphics/SVG/1.1/DTD/svg11.dtd">
<svg width="100%" height="100%" viewBox="0 0 213 384" version="1.1" xmlns="http://www.w3.org/2000/svg" xmlns:xlink="http://www.w3.org/1999/xlink" xml:space="preserve" xmlns:serif="http://www.serif.com/" style="fill-rule:evenodd;clip-rule:evenodd;stroke-linejoin:round;stroke-miterlimit:2;">
    <g transform="matrix(1,0,0,1,-1313.568133,-383.985141)">
        <g id="Tree-1" serif:id="Tree 1" transform="matrix(0.442774,0,0,0.442774,965.943442,327.42507)">
            <path d="M988.692,986.108C988.692,986.108 1002.413,893.73 995.649,876.53C989.797,861.65 956.031,884.357 948.108,882.908C943.165,882.004 953.122,868.159 948.108,867.834C937.672,867.157 894.672,880.009 885.492,878.849C879.047,878.035 899.34,862.417 893.029,860.876C880.757,857.881 829.848,868.124 811.861,860.876C796.075,854.516 785.106,825.703 785.106,817.393C785.106,809.083 810.784,814.881 811.861,811.016C812.938,807.151 785.649,800.692 791.568,794.202C799.589,785.409 853.121,765.6 859.982,758.256C866.452,751.331 824.822,755.36 832.732,750.14C847.227,740.573 945.595,709.072 946.948,700.859C948.301,692.645 850.278,709.459 840.849,700.859C831.421,692.259 886.706,657.859 890.378,649.259C893.977,640.829 865.531,651.964 862.881,649.259C860.231,646.553 877.665,635.731 874.476,633.025C871.287,630.32 837.171,640.877 843.748,633.025C853.894,620.913 927.581,571.269 935.353,560.35C943.124,549.431 891.537,574.337 890.378,567.511C889.218,560.684 928.395,526.153 928.395,519.389C928.395,512.625 885.11,538.715 890.378,526.926C895.645,515.138 956.273,460.156 960,448.657C963.727,437.158 909.602,471.461 912.741,457.933C915.881,444.405 976.42,379.954 978.836,367.488C981.251,355.023 925.98,395.608 927.236,383.142C928.492,370.677 981.831,305.259 986.373,292.698C990.37,281.641 952.939,318.401 954.485,307.772C956.031,297.142 991.535,235.192 993.274,226.785C995.014,218.378 966.108,250.737 966.108,241.895C966.108,233.054 988.982,197.474 995.649,175.875C1000.469,160.262 1004.925,127.74 1004.925,127.74C1004.925,127.74 1041.642,230.625 1042.995,251.354C1043.6,260.627 1021.445,234.618 1023.377,240.319C1025.31,246.02 1049.182,288.832 1051.307,294.437C1053.433,300.041 1024.875,276.804 1025.797,285.74C1027.054,297.916 1057.685,355.603 1058.844,367.488C1059.754,376.811 1030.629,351.255 1032.755,357.053C1034.88,362.85 1068.314,394.255 1071.6,402.275C1074.045,408.244 1049.455,399.47 1052.467,405.174C1057.009,413.774 1097.206,446.241 1098.849,453.875C1100.492,461.509 1058.354,439.96 1062.323,450.976C1066.292,461.992 1117.057,508.47 1122.662,519.969C1126.563,527.973 1094.415,511.198 1095.95,519.969C1097.489,528.762 1130.447,562.679 1131.896,572.729C1133.241,582.056 1101.471,571.393 1104.647,580.266C1107.932,589.445 1148.606,619.594 1151.608,627.807C1154.611,636.021 1120.471,620.132 1122.662,629.546C1125.271,640.755 1170.458,687.041 1167.262,695.061C1164.066,703.081 1103.487,671.87 1103.487,677.668C1103.487,683.465 1148.323,719.508 1167.262,729.847C1182.133,737.965 1212.871,734.679 1217.123,739.704C1221.375,744.728 1188.038,755.551 1192.772,759.996C1197.507,764.441 1244.952,761.542 1245.532,766.373C1246.112,771.205 1193.062,785.506 1196.251,788.984C1199.44,792.463 1265.341,780.191 1264.664,787.245C1263.988,794.299 1197.217,822.418 1192.193,831.308C1187.168,840.198 1231.521,836.043 1234.516,840.584C1237.512,845.126 1219.545,854.841 1210.166,858.557C1194.802,864.645 1161.851,875.951 1142.332,877.11C1125.486,878.111 1098.656,865.321 1093.051,865.515C1087.447,865.708 1114.31,878.753 1108.705,878.27C1103.101,877.787 1066.092,861.843 1059.424,862.616C1052.757,863.389 1074.457,881.845 1068.701,882.908C1062.944,883.971 1024.885,868.993 1024.885,868.993L1036.233,986.108C1036.233,986.108 1020.386,992.96 1012.463,992.96C1004.539,992.96 988.692,986.108 988.692,986.108Z" style="fill:url(#_Linear1);"/>
        </g>
    </g>
    <defs>
        <linearGradient id="_Linear1" x1="0" y1="0" x2="1" y2="0" gradientUnits="userSpaceOnUse" gradientTransform="matrix(400.998738,254.37741,-254.37741,400.998738,863.670818,560.349918)"><stop offset="0" style="stop-color:rgb(94,17,134);stop-opacity:1"/><stop offset="1" style="stop-color:rgb(46,0,70);stop-opacity:1"/></linearGradient>
    </defs>
</svg>
