<?xml version="1.0" encoding="UTF-8" standalone="no"?>
<!DOCTYPE svg PUBLIC "-//W3C//DTD SVG 1.1//EN" "http://www.w3.org/Graphics/SVG/1.1/DTD/svg11.dtd">
<svg width="100%" height="100%" viewBox="0 0 256 256" version="1.1" xmlns="http://www.w3.org/2000/svg" xmlns:xlink="http://www.w3.org/1999/xlink" xml:space="preserve" xmlns:serif="http://www.serif.com/" style="fill-rule:evenodd;clip-rule:evenodd;stroke-linejoin:round;stroke-miterlimit:2;">
    <g transform="matrix(0.378543,0,0,0.378543,-91.286822,-122.542636)">
        <path d="M579.292,323.722L872.129,492.792L872.129,830.931L579.292,1000L286.455,830.931L286.455,492.792L579.292,323.722Z" style="fill:rgb(251,243,255);"/>
        <clipPath id="_clip1">
            <path d="M579.292,323.722L872.129,492.792L872.129,830.931L579.292,1000L286.455,830.931L286.455,492.792L579.292,323.722Z"/>
        </clipPath>
        <g clip-path="url(#_clip1)">
            <g transform="matrix(0.676278,0,0,0.676278,241.153342,323.722149)">
                <path d="M66.987,750L178.748,556.595L297.832,883.278L66.987,750Z" style="fill:rgb(253,186,49);"/>
                <path d="M66.987,750L178.748,556.595L297.832,883.278L66.987,750ZM69.211,749.405L294.77,879.631L178.413,560.428L69.211,749.405Z" style="fill:rgb(253,186,49);"/>
            </g>
            <g transform="matrix(0.676278,0,0,0.676278,241.153342,323.722149)">
                <path d="M198.644,173.988L500,-0L277.532,390.876L198.644,173.988Z" style="fill:rgb(253,186,49);"/>
                <path d="M198.644,173.988L500,-0L277.532,390.876L198.644,173.988ZM200.64,174.715L277.858,387.012L495.617,4.41L200.64,174.715Z" style="fill:rgb(253,186,49);"/>
            </g>
            <g transform="matrix(0.676278,0,0,0.676278,241.153342,323.722149)">
                <path d="M66.987,250L198.644,173.988L500,1000L297.832,883.278L66.987,250Z" style="fill:rgb(86,14,124);"/>
                <path d="M66.987,250L198.644,173.988L500,1000L297.832,883.278L66.987,250ZM68.984,250.726L299.159,882.165L496.937,996.352L197.779,176.367L68.984,250.726Z" style="fill:rgb(86,14,124);"/>
            </g>
            <g transform="matrix(0.676278,0,0,0.676278,241.153342,323.722149)">
                <path d="M66.987,250L178.748,556.595L66.987,749.997L66.987,250Z" style="fill:rgb(251,243,255);"/>
                <path d="M66.987,250L178.748,556.595L66.987,749.997L66.987,250ZM68.615,259.217L68.615,743.927L176.959,556.438L68.615,259.217Z" style="fill:rgb(251,243,255);"/>
            </g>
            <g transform="matrix(0.676278,0,0,0.676278,228.647188,411.867267)">
                <g transform="matrix(227.864583,0,0,227.864583,403.809695,448.559498)">
                    <path d="M0.48,-0.113L0.055,-0.302L0.055,-0.367L0.48,-0.557L0.48,-0.467L0.129,-0.318L0.129,-0.352L0.48,-0.203L0.48,-0.113Z" style="fill:rgb(253,186,49);fill-rule:nonzero;"/>
                </g>
                <g transform="matrix(227.864583,0,0,227.864583,529.135216,448.559498)">
                    <path d="M0.402,-0L0.402,-0.277C0.402,-0.313 0.39,-0.343 0.368,-0.366C0.345,-0.389 0.316,-0.401 0.28,-0.401C0.256,-0.401 0.234,-0.395 0.216,-0.385C0.197,-0.374 0.182,-0.36 0.172,-0.341C0.161,-0.322 0.156,-0.301 0.156,-0.277L0.119,-0.298C0.119,-0.334 0.127,-0.366 0.143,-0.394C0.159,-0.422 0.181,-0.444 0.21,-0.461C0.238,-0.477 0.271,-0.485 0.307,-0.485C0.343,-0.485 0.374,-0.477 0.402,-0.461C0.43,-0.445 0.452,-0.422 0.468,-0.394C0.484,-0.365 0.492,-0.332 0.492,-0.294L0.492,-0L0.402,-0ZM0.066,-0L0.066,-0.714L0.156,-0.714L0.156,-0L0.066,-0Z" style="fill:rgb(253,186,49);fill-rule:nonzero;"/>
                </g>
                <g transform="matrix(227.864583,0,0,227.864583,654.005008,448.559498)">
                </g>
                <g transform="matrix(227.864583,0,0,227.864583,701.400841,448.559498)">
                    <path d="M0.014,0.04L0.291,-0.733L0.376,-0.733L0.099,0.04L0.014,0.04Z" style="fill:rgb(253,186,49);fill-rule:nonzero;"/>
                </g>
                <g transform="matrix(227.864583,0,0,227.864583,790.268028,448.559498)">
                    <path d="M0.07,-0.467L0.07,-0.557L0.494,-0.367L0.494,-0.302L0.07,-0.113L0.07,-0.203L0.421,-0.352L0.421,-0.318L0.07,-0.467Z" style="fill:rgb(253,186,49);fill-rule:nonzero;"/>
                </g>
                <g transform="matrix(227.864583,0,0,227.864583,915.593549,448.559498)">
                </g>
            </g>
        </g>
    </g>
</svg>
